<svg width="41" height="40" viewBox="0 0 41 40" fill="none" xmlns="http://www.w3.org/2000/svg">
<path d="M28.6819 25.6578C28.6773 26.777 28.5443 27.892 28.2855 28.9811C28.2596 29.0886 28.2381 29.2003 28.2079 29.3121C27.5717 31.7119 26.321 33.9055 24.5786 35.6773C22.8363 37.4492 20.6622 38.7386 18.2697 39.4189C15.8772 40.0992 13.3485 40.1471 10.9318 39.5578C8.5152 38.9685 6.29365 37.7623 4.48523 36.0576C4.38613 35.9673 4.28273 35.8684 4.18363 35.7696C4.08453 35.6707 3.98544 35.5718 3.89496 35.4686C1.38891 32.8106 0.000896334 29.2942 0.0172944 25.6449C0.00558742 25.2649 0.015657 24.8845 0.047454 24.5056C0.612931 25.2889 1.23962 26.0264 1.92166 26.7111C4.10115 28.9045 6.8249 30.4815 9.81486 31.2812C10.7314 31.5258 11.6667 31.694 12.6111 31.7842L13.2014 31.8272C13.5676 31.8272 13.9295 31.8616 14.2914 31.8616C15.2892 31.8611 16.2852 31.7762 17.2686 31.6079C18.2578 31.4364 19.2306 31.1819 20.1768 30.8469L20.5345 30.7223C22.8549 29.8371 24.9629 28.4748 26.7215 26.724C27.4025 26.035 28.0278 25.2932 28.5914 24.5056C28.5914 24.6647 28.6172 24.828 28.6258 24.9957C28.6345 25.1634 28.6819 25.4385 28.6819 25.6578Z" fill="#ED1B24"/>
<path d="M40.3192 14.3078C40.3189 13.1883 40.1858 12.0728 39.9228 10.9845C39.8969 10.877 39.8754 10.7653 39.8452 10.6535C39.209 8.25366 37.9583 6.06015 36.2159 4.28826C34.4736 2.51638 32.2995 1.22701 29.907 0.546703C27.5145 -0.133601 24.9858 -0.181456 22.5691 0.407834C20.1525 0.997125 17.9309 2.20331 16.1225 3.908C16.0234 3.99828 15.92 4.09716 15.8209 4.19604C15.7218 4.29493 15.6227 4.39381 15.5323 4.49699C13.0262 7.15496 11.6382 10.6714 11.6546 14.3207C11.6473 14.6996 11.6617 15.0785 11.6977 15.4557C12.2634 14.6713 12.8916 13.9337 13.5762 13.2502C15.7504 11.0597 18.4682 9.48411 21.4522 8.68444C22.3683 8.4355 23.3036 8.26293 24.2484 8.16853L24.8387 8.12554C25.2049 8.10404 25.5668 8.09114 25.9287 8.09114C27.935 8.09492 29.9257 8.44247 31.8141 9.11866L32.1761 9.24334C34.4947 10.1296 36.601 11.4918 38.3588 13.2416C39.0395 13.9279 39.6647 14.6668 40.2287 15.4514C40.2287 15.2923 40.2545 15.129 40.2631 14.9613C40.2718 14.7936 40.3192 14.5271 40.3192 14.3078Z" fill="#ED1B24"/>
<path d="M13.2703 26.7324C13.9559 27.4153 14.6966 28.0408 15.4848 28.6026C15.11 28.6327 14.7308 28.6499 14.3517 28.6499C13.1112 28.6483 11.8761 28.4879 10.6765 28.1727C7.61071 27.3683 4.89911 25.5714 2.96692 23.0638C1.03473 20.5561 -0.00878229 17.4795 2.15862e-05 14.3163C-0.0163765 10.6669 1.37164 7.15052 3.87769 4.49255C3.96817 4.39367 4.07157 4.29479 4.17067 4.19591L4.46795 3.90356C7.13182 1.38816 10.6626 -0.00941837 14.3301 -0.000138769C14.7157 -0.00880372 15.1013 0.006992 15.4848 0.0471528C15.4643 0.0549188 15.4464 0.0683341 15.4331 0.0858457C14.6688 0.639952 13.9485 1.25227 13.2789 1.91732C11.0765 4.10151 9.49461 6.8298 8.69461 9.82359C7.90521 12.7949 7.9124 15.9211 8.71548 18.8888C9.51856 21.8565 11.0893 24.5614 13.2703 26.7324Z" fill="#ED1B24"/>
<path d="M40.0434 25.6664C40.056 29.3253 38.6548 32.8484 36.1312 35.503L35.8383 35.804L35.541 36.092C32.8791 38.6008 29.3532 39.9936 25.6917 39.9828C25.3126 39.9828 24.9291 39.9613 24.5499 39.9355C25.3372 39.3724 26.0778 38.747 26.7645 38.0653C28.9538 35.8839 30.5264 33.1638 31.3229 30.1806C31.4694 29.6303 31.5858 29.0714 31.6762 28.5125C31.7409 28.1427 31.7839 27.7644 31.8227 27.3904C31.8744 26.8272 31.9046 26.2597 31.9046 25.6965C31.9087 23.565 31.5217 21.4507 30.7628 19.4583C29.8773 17.1443 28.5135 15.0423 26.7602 13.2889C26.0702 12.5992 25.3253 11.9666 24.5327 11.3972L25.0239 11.3629H25.6702C25.9761 11.3629 26.282 11.3629 26.5965 11.3929C27.5218 11.4462 28.4397 11.5902 29.3367 11.8229C32.3998 12.6322 35.1095 14.4278 37.0454 16.9308C38.9813 19.4339 40.0351 22.5046 40.0434 25.6664Z" fill="#ED1B24"/>
</svg>
